<mxfile host="app.diagrams.net" modified="2021-03-10T14:15:25.878Z" agent="5.0 (Windows NT 10.0; Win64; x64) AppleWebKit/537.36 (KHTML, like Gecko) Chrome/89.0.4389.72 Safari/537.36 Edg/89.0.774.45" etag="qvvF0uZqvqy1V3eCvqjD" version="14.4.6" type="github">
  <diagram id="pJoODLNt0wpuWwSNDnVQ" name="Page-1">
    <mxGraphModel dx="2241" dy="906" grid="1" gridSize="10" guides="1" tooltips="1" connect="1" arrows="1" fold="1" page="1" pageScale="1" pageWidth="850" pageHeight="1100" math="0" shadow="0">
      <root>
        <mxCell id="0" />
        <mxCell id="1" parent="0" />
        <mxCell id="bkNSY8I_5nw9Tk2DiAVW-1" value="Main.py" style="swimlane;shadow=0;fillColor=#ffffff;startSize=20;" vertex="1" parent="1">
          <mxGeometry x="320" y="10" width="520" height="560" as="geometry">
            <mxRectangle x="320" y="10" width="60" height="23" as="alternateBounds" />
          </mxGeometry>
        </mxCell>
        <mxCell id="bkNSY8I_5nw9Tk2DiAVW-9" style="edgeStyle=orthogonalEdgeStyle;orthogonalLoop=1;jettySize=auto;html=1;exitX=0.5;exitY=1;exitDx=0;exitDy=0;" edge="1" parent="bkNSY8I_5nw9Tk2DiAVW-1" source="bkNSY8I_5nw9Tk2DiAVW-2" target="bkNSY8I_5nw9Tk2DiAVW-3">
          <mxGeometry relative="1" as="geometry" />
        </mxCell>
        <mxCell id="bkNSY8I_5nw9Tk2DiAVW-2" value="Start" style="ellipse;whiteSpace=wrap;html=1;" vertex="1" parent="bkNSY8I_5nw9Tk2DiAVW-1">
          <mxGeometry x="200" y="30" width="120" height="80" as="geometry" />
        </mxCell>
        <mxCell id="bkNSY8I_5nw9Tk2DiAVW-10" style="edgeStyle=orthogonalEdgeStyle;orthogonalLoop=1;jettySize=auto;html=1;exitX=0;exitY=0.5;exitDx=0;exitDy=0;" edge="1" parent="bkNSY8I_5nw9Tk2DiAVW-1" source="bkNSY8I_5nw9Tk2DiAVW-3" target="bkNSY8I_5nw9Tk2DiAVW-4">
          <mxGeometry relative="1" as="geometry" />
        </mxCell>
        <mxCell id="bkNSY8I_5nw9Tk2DiAVW-11" style="edgeStyle=orthogonalEdgeStyle;orthogonalLoop=1;jettySize=auto;html=1;exitX=1;exitY=0.5;exitDx=0;exitDy=0;" edge="1" parent="bkNSY8I_5nw9Tk2DiAVW-1" source="bkNSY8I_5nw9Tk2DiAVW-3" target="bkNSY8I_5nw9Tk2DiAVW-5">
          <mxGeometry relative="1" as="geometry" />
        </mxCell>
        <mxCell id="bkNSY8I_5nw9Tk2DiAVW-3" value="Single player or co-op?" style="rhombus;whiteSpace=wrap;html=1;" vertex="1" parent="bkNSY8I_5nw9Tk2DiAVW-1">
          <mxGeometry x="210" y="130" width="100" height="100" as="geometry" />
        </mxCell>
        <mxCell id="bkNSY8I_5nw9Tk2DiAVW-4" value="is_Singleplayer = True" style="shape=parallelogram;perimeter=parallelogramPerimeter;whiteSpace=wrap;html=1;fixedSize=1;shadow=0;fillColor=#ffffff;" vertex="1" parent="bkNSY8I_5nw9Tk2DiAVW-1">
          <mxGeometry y="150" width="150" height="60" as="geometry" />
        </mxCell>
        <mxCell id="bkNSY8I_5nw9Tk2DiAVW-12" style="edgeStyle=orthogonalEdgeStyle;orthogonalLoop=1;jettySize=auto;html=1;exitX=0.5;exitY=1;exitDx=0;exitDy=0;entryX=0.5;entryY=0;entryDx=0;entryDy=0;" edge="1" parent="bkNSY8I_5nw9Tk2DiAVW-1" source="bkNSY8I_5nw9Tk2DiAVW-5" target="bkNSY8I_5nw9Tk2DiAVW-6">
          <mxGeometry relative="1" as="geometry" />
        </mxCell>
        <mxCell id="bkNSY8I_5nw9Tk2DiAVW-5" value="is_Singleplayer = False" style="shape=parallelogram;perimeter=parallelogramPerimeter;whiteSpace=wrap;html=1;fixedSize=1;shadow=0;fillColor=#ffffff;" vertex="1" parent="bkNSY8I_5nw9Tk2DiAVW-1">
          <mxGeometry x="370" y="150" width="150" height="60" as="geometry" />
        </mxCell>
        <mxCell id="bkNSY8I_5nw9Tk2DiAVW-14" style="edgeStyle=orthogonalEdgeStyle;orthogonalLoop=1;jettySize=auto;html=1;exitX=1;exitY=0.5;exitDx=0;exitDy=0;" edge="1" parent="bkNSY8I_5nw9Tk2DiAVW-1" source="bkNSY8I_5nw9Tk2DiAVW-6" target="bkNSY8I_5nw9Tk2DiAVW-7">
          <mxGeometry relative="1" as="geometry" />
        </mxCell>
        <mxCell id="bkNSY8I_5nw9Tk2DiAVW-15" style="edgeStyle=orthogonalEdgeStyle;orthogonalLoop=1;jettySize=auto;html=1;exitX=0.5;exitY=1;exitDx=0;exitDy=0;" edge="1" parent="bkNSY8I_5nw9Tk2DiAVW-1" source="bkNSY8I_5nw9Tk2DiAVW-6" target="bkNSY8I_5nw9Tk2DiAVW-8">
          <mxGeometry relative="1" as="geometry" />
        </mxCell>
        <mxCell id="bkNSY8I_5nw9Tk2DiAVW-6" value="Load save or create new?" style="rhombus;whiteSpace=wrap;html=1;" vertex="1" parent="bkNSY8I_5nw9Tk2DiAVW-1">
          <mxGeometry x="210" y="280" width="100" height="100" as="geometry" />
        </mxCell>
        <mxCell id="bkNSY8I_5nw9Tk2DiAVW-7" value="LoadGame()" style="shape=display;whiteSpace=wrap;html=1;shadow=0;fillColor=#ffffff;" vertex="1" parent="bkNSY8I_5nw9Tk2DiAVW-1">
          <mxGeometry x="385" y="300" width="120" height="60" as="geometry" />
        </mxCell>
        <mxCell id="bkNSY8I_5nw9Tk2DiAVW-8" value="NewGame()" style="shape=display;whiteSpace=wrap;html=1;shadow=0;fillColor=#ffffff;rotation=90;" vertex="1" parent="bkNSY8I_5nw9Tk2DiAVW-1">
          <mxGeometry x="200" y="470" width="120" height="60" as="geometry" />
        </mxCell>
        <mxCell id="bkNSY8I_5nw9Tk2DiAVW-13" style="edgeStyle=orthogonalEdgeStyle;orthogonalLoop=1;jettySize=auto;html=1;exitX=0.5;exitY=1;exitDx=0;exitDy=0;entryX=0.5;entryY=0;entryDx=0;entryDy=0;" edge="1" parent="bkNSY8I_5nw9Tk2DiAVW-1" source="bkNSY8I_5nw9Tk2DiAVW-4" target="bkNSY8I_5nw9Tk2DiAVW-6">
          <mxGeometry relative="1" as="geometry">
            <mxPoint x="260" y="260" as="targetPoint" />
          </mxGeometry>
        </mxCell>
        <mxCell id="bkNSY8I_5nw9Tk2DiAVW-16" value="Single" style="text;html=1;strokeColor=none;fillColor=none;align=center;verticalAlign=middle;whiteSpace=wrap;shadow=0;" vertex="1" parent="bkNSY8I_5nw9Tk2DiAVW-1">
          <mxGeometry x="170" y="160" width="40" height="20" as="geometry" />
        </mxCell>
        <mxCell id="bkNSY8I_5nw9Tk2DiAVW-17" value="Co-op" style="text;html=1;strokeColor=none;fillColor=none;align=center;verticalAlign=middle;whiteSpace=wrap;shadow=0;" vertex="1" parent="bkNSY8I_5nw9Tk2DiAVW-1">
          <mxGeometry x="310" y="160" width="40" height="20" as="geometry" />
        </mxCell>
        <mxCell id="bkNSY8I_5nw9Tk2DiAVW-18" value="Load" style="text;html=1;strokeColor=none;fillColor=none;align=center;verticalAlign=middle;whiteSpace=wrap;shadow=0;" vertex="1" parent="bkNSY8I_5nw9Tk2DiAVW-1">
          <mxGeometry x="310" y="310" width="40" height="20" as="geometry" />
        </mxCell>
        <mxCell id="bkNSY8I_5nw9Tk2DiAVW-19" value="New" style="text;html=1;strokeColor=none;fillColor=none;align=center;verticalAlign=middle;whiteSpace=wrap;shadow=0;rotation=90;" vertex="1" parent="bkNSY8I_5nw9Tk2DiAVW-1">
          <mxGeometry x="230" y="390" width="40" height="20" as="geometry" />
        </mxCell>
        <mxCell id="bkNSY8I_5nw9Tk2DiAVW-29" value="NewGame.py" style="swimlane;shadow=0;fillColor=#ffffff;" vertex="1" parent="1">
          <mxGeometry x="-210" y="10" width="520" height="560" as="geometry" />
        </mxCell>
        <mxCell id="bkNSY8I_5nw9Tk2DiAVW-30" value="LoadGame.py" style="swimlane;shadow=0;fillColor=#ffffff;" vertex="1" parent="1">
          <mxGeometry x="-740" y="10" width="520" height="560" as="geometry" />
        </mxCell>
      </root>
    </mxGraphModel>
  </diagram>
</mxfile>
